<?xml version="1.0" standalone="no"?>
<!DOCTYPE svg PUBLIC "-//W3C//DTD SVG 20010904//EN"
 "http://www.w3.org/TR/2001/REC-SVG-20010904/DTD/svg10.dtd">
<svg version="1.0" xmlns="http://www.w3.org/2000/svg"
 width="480.000000pt" height="480.000000pt" viewBox="0 0 480.000000 480.000000"
 preserveAspectRatio="xMidYMid meet">
<metadata>
Created by potrace 1.11, written by Peter Selinger 2001-2013
</metadata>
<g transform="translate(0.000000,480.000000) scale(0.100000,-0.100000)"
fill="#000000" stroke="none">
<path d="M2440 4344 c-434 -15 -651 -46 -838 -118 -210 -81 -349 -175 -461
-313 -131 -161 -195 -322 -212 -528 -21 -253 40 -478 240 -886 39 -80 71 -158
71 -173 0 -14 -14 -54 -31 -88 -36 -71 -74 -189 -95 -298 -21 -107 -29 -320
-15 -410 64 -415 259 -724 583 -924 137 -85 213 -111 443 -151 273 -47 723
-12 933 74 143 58 346 216 457 356 184 231 287 509 289 775 1 153 -4 211 -17
203 -6 -4 -8 2 -5 15 4 13 0 23 -8 26 -8 3 -14 16 -14 30 0 14 -4 28 -10 31
-5 3 -10 19 -10 35 0 16 -4 32 -10 35 -5 3 -15 16 -21 27 -10 19 -9 20 10 15
12 -3 19 -1 15 4 -3 5 -12 9 -20 9 -14 0 -19 17 -16 53 1 10 -2 16 -7 13 -5
-3 -14 0 -20 8 -9 10 -7 17 6 27 15 12 16 12 10 -3 -4 -12 -2 -18 8 -18 19 0
19 1 -7 54 -19 41 -23 43 -35 28 -12 -15 -13 -14 -3 6 11 24 5 66 -9 57 -5 -2
-17 11 -27 30 -10 19 -22 35 -26 35 -5 0 -8 18 -8 39 0 33 3 38 18 34 14 -3
23 6 37 39 10 24 28 66 40 93 52 118 147 391 150 430 1 11 6 38 13 60 15 55
25 264 14 300 l-9 30 -11 -27 c-7 -16 -19 -28 -29 -28 -13 0 -14 3 -5 12 8 8
6 16 -10 33 -11 12 -22 35 -23 51 -2 16 -9 43 -16 59 -7 17 -13 35 -13 40 0
13 -50 151 -68 187 -7 16 -17 28 -21 28 -5 0 -5 5 -2 11 4 5 -1 19 -11 30 -10
11 -19 27 -20 36 -2 9 -8 19 -15 23 -17 11 -1 30 19 23 9 -4 27 -17 40 -30 12
-13 22 -20 22 -16 0 10 79 -99 80 -109 0 -4 7 -16 15 -25 8 -10 20 -26 27 -36
12 -16 13 -14 13 12 0 16 -3 27 -7 24 -5 -2 -8 7 -8 20 0 13 -3 27 -7 31 -5 4
-8 11 -9 14 -4 48 -100 190 -183 272 -236 233 -583 324 -1161 304z m580 -553
c99 -30 162 -65 233 -130 71 -66 100 -122 117 -221 22 -130 4 -272 -51 -400
-6 -14 -23 -54 -38 -90 l-27 -65 -46 -3 c-36 -2 -56 3 -88 23 -110 70 -297
135 -470 165 -216 38 -468 13 -670 -64 -116 -45 -237 -107 -294 -151 -44 -33
-51 -35 -76 -25 -55 23 -149 235 -170 381 -28 204 32 349 189 453 120 80 194
103 406 127 195 21 333 27 620 25 268 -2 296 -4 365 -25z m-1621 -752 c7 -27
17 -49 22 -49 5 0 9 -9 9 -20 0 -11 4 -20 9 -20 5 0 9 -17 9 -37 -1 -21 1 -42
3 -48 2 -6 0 -12 -6 -14 -13 -5 -65 93 -67 128 -1 14 -5 28 -9 31 -4 3 -9 14
-11 25 -1 11 -10 25 -18 31 -12 10 -12 15 -1 27 20 25 46 2 60 -54z m2212
-770 c-5 -13 -10 -19 -10 -12 -1 15 10 45 15 40 3 -2 0 -15 -5 -28z"/>
<path d="M3706 2145 c-9 -26 -7 -32 5 -12 6 10 9 21 6 23 -2 3 -7 -2 -11 -11z"/>
<path d="M3720 2121 c0 -6 4 -13 10 -16 6 -3 7 1 4 9 -7 18 -14 21 -14 7z"/>
<path d="M3772 1940 c0 -14 2 -19 5 -12 2 6 2 18 0 25 -3 6 -5 1 -5 -13z"/>
</g>
</svg>
